<?xml version="1.0" encoding="UTF-8"?>
<svg xmlns="http://www.w3.org/2000/svg" viewBox="0 0 100 100" width="100" height="100" role="img" aria-label="Ciak icon">
  <title>Ciak — icona</title>
  <desc>C stilizzata come ruota di pellicola con segmenti colorati e pixel decorativi</desc>

  <!-- Segmenti circolari "C" -->
  <g fill="none" stroke-width="9" stroke-linecap="round">
    <!-- Top-right (giallo accento) -->
    <path stroke="#FACC15" d="M 67.5 19.69 A 35 35 0 0 1 50 15"/>
    <!-- Top (grigio medio) -->
    <path stroke="#64748B" d="M 50 15 A 35 35 0 0 1 32.5 19.69"/>
    <!-- Top-left (grigio medio) -->
    <path stroke="#64748B" d="M 32.5 19.69 A 35 35 0 0 1 19.69 32.5"/>
    <!-- Left (grigio medio) -->
    <path stroke="#64748B" d="M 19.69 32.5 A 35 35 0 0 1 15 50"/>
    <!-- Bottom-left (blu profondo) -->
    <path stroke="#0F172A" d="M 15 50 A 35 35 0 0 1 23.19 72.5"/>
    <!-- Bottom (blu profondo) -->
    <path stroke="#0F172A" d="M 23.19 72.5 A 35 35 0 0 1 43.92 84.47"/>
    <!-- Bottom-right (blu profondo) -->
    <path stroke="#0F172A" d="M 43.92 84.47 A 35 35 0 0 1 67.5 80.31"/>
  </g>

  <!-- Pixel decorativi (dispersione digitale top-left) -->
  <rect x="14" y="13" width="3" height="3" fill="#0F172A"/>
  <rect x="20" y="8" width="4" height="4" fill="#64748B"/>
  <rect x="9" y="20" width="3" height="3" fill="#64748B"/>
  <rect x="26" y="14" width="3" height="3" fill="#0F172A"/>
  <rect x="6" y="11" width="2.5" height="2.5" fill="#64748B"/>
</svg>
