<?xml version="1.0" encoding="UTF-8"?>
<svg xmlns="http://www.w3.org/2000/svg" viewBox="0 0 100 100" width="100" height="100" role="img" aria-label="Ciak icon on yellow background">
  <title>Ciak — icona su sfondo giallo</title>

  <!-- Background giallo -->
  <rect width="100" height="100" fill="#FACC15"/>

  <!-- Segmenti circolari "C" - tutto blu profondo per massimo contrasto -->
  <g fill="none" stroke-width="9" stroke-linecap="round">
    <path stroke="#FFFFFF" d="M 67.5 19.69 A 35 35 0 0 1 50 15"/>
    <path stroke="#0F172A" d="M 50 15 A 35 35 0 0 1 32.5 19.69"/>
    <path stroke="#0F172A" d="M 32.5 19.69 A 35 35 0 0 1 19.69 32.5"/>
    <path stroke="#0F172A" d="M 19.69 32.5 A 35 35 0 0 1 15 50"/>
    <path stroke="#0F172A" d="M 15 50 A 35 35 0 0 1 23.19 72.5"/>
    <path stroke="#0F172A" d="M 23.19 72.5 A 35 35 0 0 1 43.92 84.47"/>
    <path stroke="#0F172A" d="M 43.92 84.47 A 35 35 0 0 1 67.5 80.31"/>
  </g>

  <!-- Pixel decorativi -->
  <rect x="14" y="13" width="3" height="3" fill="#0F172A"/>
  <rect x="20" y="8" width="4" height="4" fill="#0F172A"/>
  <rect x="9" y="20" width="3" height="3" fill="#0F172A"/>
  <rect x="26" y="14" width="3" height="3" fill="#0F172A"/>
  <rect x="6" y="11" width="2.5" height="2.5" fill="#0F172A"/>
</svg>
